<svg xmlns="http://www.w3.org/2000/svg" width="22" height="22" viewBox="0 0 22 22" fill="none">
    <path d="M2.75 6.41675H19.25" stroke="#A2A2A7" stroke-width="1.3" stroke-linecap="round" stroke-linejoin="round"/>
    <path d="M8.77258 10.0833H6.41675" stroke="#A2A2A7" stroke-width="1.3" stroke-linecap="round" stroke-linejoin="round"/>
    <path d="M10.0833 15.5833H5.5C3.98108 15.5833 2.75 14.3523 2.75 12.8333V5.5C2.75 3.98108 3.98108 2.75 5.5 2.75H16.5C18.0189 2.75 19.25 3.98108 19.25 5.5V9.16667" stroke="#A2A2A7" stroke-width="1.3" stroke-linecap="round" stroke-linejoin="round"/>
    <path d="M15.8518 18.9815L19.898 14.9353C20.2564 14.5769 20.2564 13.9966 19.898 13.6391L18.4442 12.1853C18.0858 11.8269 17.5055 11.8269 17.148 12.1853L13.1018 16.2315C12.9295 16.4038 12.8333 16.6367 12.8333 16.8796V19.2501H15.2038C15.4467 19.2501 15.6795 19.1538 15.8518 18.9815Z" stroke="#A2A2A7" stroke-width="1.3" stroke-linecap="round" stroke-linejoin="round"/>
</svg>