<svg xmlns="http://www.w3.org/2000/svg" width="197" height="196" viewBox="0 0 197 196" fill="none">
    <circle cx="98" cy="98" r="98" fill="#161622"/>
    <path d="M81.3642 81.1121H69.7002V87.2681C70.2042 86.6441 70.9242 86.1401 71.8602 85.7561C72.7962 85.3481 73.7922 85.1441 74.8482 85.1441C76.7682 85.1441 78.3402 85.5641 79.5642 86.4041C80.7882 87.2441 81.6762 88.3241 82.2282 89.6441C82.7802 90.9401 83.0562 92.3321 83.0562 93.8201C83.0562 96.5801 82.2642 98.8001 80.6802 100.48C79.1202 102.16 76.8882 103 73.9842 103C71.2482 103 69.0642 102.316 67.4322 100.948C65.8002 99.5801 64.8762 97.7921 64.6602 95.5841H69.5562C69.7722 96.5441 70.2522 97.3121 70.9962 97.8881C71.7642 98.4641 72.7362 98.7521 73.9122 98.7521C75.3282 98.7521 76.3962 98.3081 77.1162 97.4201C77.8362 96.5321 78.1962 95.3561 78.1962 93.8921C78.1962 92.4041 77.8242 91.2761 77.0802 90.5081C76.3602 89.7161 75.2922 89.3201 73.8762 89.3201C72.8682 89.3201 72.0282 89.5721 71.3562 90.0761C70.6842 90.5801 70.2042 91.2521 69.9162 92.0921H65.0922V76.6841H81.3642V81.1121ZM104.532 81.1121H92.8678V87.2681C93.3718 86.6441 94.0918 86.1401 95.0278 85.7561C95.9638 85.3481 96.9598 85.1441 98.0158 85.1441C99.9358 85.1441 101.508 85.5641 102.732 86.4041C103.956 87.2441 104.844 88.3241 105.396 89.6441C105.948 90.9401 106.224 92.3321 106.224 93.8201C106.224 96.5801 105.432 98.8001 103.848 100.48C102.288 102.16 100.056 103 97.1518 103C94.4158 103 92.2318 102.316 90.5998 100.948C88.9678 99.5801 88.0438 97.7921 87.8282 95.5841H92.7238C92.9398 96.5441 93.4198 97.3121 94.1638 97.8881C94.9318 98.4641 95.9038 98.7521 97.0798 98.7521C98.4958 98.7521 99.5638 98.3081 100.284 97.4201C101.004 96.5321 101.364 95.3561 101.364 93.8921C101.364 92.4041 100.992 91.2761 100.248 90.5081C99.5278 89.7161 98.4598 89.3201 97.0438 89.3201C96.0358 89.3201 95.1958 89.5721 94.5238 90.0761C93.8518 90.5801 93.3718 91.2521 93.0838 92.0921H88.2598V76.6841H104.532V81.1121ZM109.484 83.2001C109.484 81.3761 110.012 79.9481 111.068 78.9161C112.148 77.8841 113.528 77.3681 115.208 77.3681C116.888 77.3681 118.256 77.8841 119.312 78.9161C120.392 79.9481 120.932 81.3761 120.932 83.2001C120.932 85.0481 120.392 86.4881 119.312 87.5201C118.256 88.5521 116.888 89.0681 115.208 89.0681C113.528 89.0681 112.148 88.5521 111.068 87.5201C110.012 86.4881 109.484 85.0481 109.484 83.2001ZM132.596 77.8001L118.448 103H113.552L127.664 77.8001H132.596ZM115.172 80.3921C113.852 80.3921 113.192 81.3281 113.192 83.2001C113.192 85.0961 113.852 86.0441 115.172 86.0441C115.82 86.0441 116.324 85.8161 116.684 85.3601C117.044 84.8801 117.224 84.1601 117.224 83.2001C117.224 81.3281 116.54 80.3921 115.172 80.3921ZM125.288 97.5641C125.288 95.7161 125.816 94.2881 126.872 93.2801C127.952 92.2481 129.332 91.7321 131.012 91.7321C132.692 91.7321 134.048 92.2481 135.08 93.2801C136.136 94.2881 136.664 95.7161 136.664 97.5641C136.664 99.4121 136.136 100.852 135.08 101.884C134.048 102.916 132.692 103.432 131.012 103.432C129.308 103.432 127.928 102.916 126.872 101.884C125.816 100.852 125.288 99.4121 125.288 97.5641ZM130.976 94.7561C129.608 94.7561 128.924 95.6921 128.924 97.5641C128.924 99.4601 129.608 100.408 130.976 100.408C132.32 100.408 132.992 99.4601 132.992 97.5641C132.992 95.6921 132.32 94.7561 130.976 94.7561Z" fill="white"/>
    <path d="M65.1368 114.242V115.278H62.4768V124H61.2028V115.278H58.5288V114.242H65.1368ZM67.9791 117.574C68.2031 117.135 68.5204 116.795 68.9311 116.552C69.3511 116.309 69.8597 116.188 70.4571 116.188V117.504H70.1211C68.6931 117.504 67.9791 118.279 67.9791 119.828V124H66.7051V116.328H67.9791V117.574ZM71.4517 120.136C71.4517 119.352 71.6104 118.666 71.9277 118.078C72.245 117.481 72.679 117.019 73.2297 116.692C73.7897 116.365 74.4104 116.202 75.0917 116.202C75.7637 116.202 76.347 116.347 76.8417 116.636C77.3364 116.925 77.705 117.289 77.9477 117.728V116.328H79.2357V124H77.9477V122.572C77.6957 123.02 77.3177 123.393 76.8137 123.692C76.319 123.981 75.7404 124.126 75.0777 124.126C74.3964 124.126 73.7804 123.958 73.2297 123.622C72.679 123.286 72.245 122.815 71.9277 122.208C71.6104 121.601 71.4517 120.911 71.4517 120.136ZM77.9477 120.15C77.9477 119.571 77.831 119.067 77.5977 118.638C77.3644 118.209 77.047 117.882 76.6457 117.658C76.2537 117.425 75.8197 117.308 75.3437 117.308C74.8677 117.308 74.4337 117.42 74.0417 117.644C73.6497 117.868 73.337 118.195 73.1037 118.624C72.8704 119.053 72.7537 119.557 72.7537 120.136C72.7537 120.724 72.8704 121.237 73.1037 121.676C73.337 122.105 73.6497 122.437 74.0417 122.67C74.4337 122.894 74.8677 123.006 75.3437 123.006C75.8197 123.006 76.2537 122.894 76.6457 122.67C77.047 122.437 77.3644 122.105 77.5977 121.676C77.831 121.237 77.9477 120.729 77.9477 120.15ZM85.1266 116.188C86.06 116.188 86.816 116.473 87.3946 117.042C87.9733 117.602 88.2631 118.414 88.2631 119.478V124H87.0026V119.66C87.0026 118.895 86.8113 118.311 86.4286 117.91C86.046 117.499 85.5233 117.294 84.8606 117.294C84.1886 117.294 83.652 117.504 83.2506 117.924C82.8586 118.344 82.6626 118.955 82.6626 119.758V124H81.3886V116.328H82.6626V117.42C82.9146 117.028 83.2553 116.725 83.6846 116.51C84.1233 116.295 84.604 116.188 85.1266 116.188ZM93.0601 124.126C92.4721 124.126 91.9441 124.028 91.4781 123.832C91.0111 123.627 90.6421 123.347 90.3721 122.992C90.1011 122.628 89.9521 122.213 89.9241 121.746H91.2401C91.2771 122.129 91.4541 122.441 91.7721 122.684C92.0981 122.927 92.5231 123.048 93.0461 123.048C93.5311 123.048 93.9141 122.941 94.1941 122.726C94.4741 122.511 94.6141 122.241 94.6141 121.914C94.6141 121.578 94.4641 121.331 94.1661 121.172C93.8671 121.004 93.4051 120.841 92.7801 120.682C92.2101 120.533 91.7441 120.383 91.3801 120.234C91.0251 120.075 90.7171 119.847 90.4561 119.548C90.2041 119.24 90.0781 118.839 90.0781 118.344C90.0781 117.952 90.1941 117.593 90.4281 117.266C90.6611 116.939 90.9921 116.683 91.4221 116.496C91.8511 116.3 92.3411 116.202 92.8921 116.202C93.7411 116.202 94.4271 116.417 94.9501 116.846C95.4721 117.275 95.7521 117.863 95.7901 118.61H94.5161C94.4881 118.209 94.3241 117.887 94.0261 117.644C93.7361 117.401 93.3441 117.28 92.8501 117.28C92.3921 117.28 92.0281 117.378 91.7581 117.574C91.4871 117.77 91.3521 118.027 91.3521 118.344C91.3521 118.596 91.4311 118.806 91.5901 118.974C91.7581 119.133 91.9631 119.263 92.2061 119.366C92.4581 119.459 92.8031 119.567 93.2421 119.688C93.7921 119.837 94.2401 119.987 94.5861 120.136C94.9311 120.276 95.2251 120.491 95.4681 120.78C95.7201 121.069 95.8501 121.447 95.8601 121.914C95.8601 122.334 95.7431 122.712 95.5101 123.048C95.2761 123.384 94.9451 123.65 94.5161 123.846C94.0961 124.033 93.6101 124.126 93.0601 124.126ZM97.1821 120.136C97.1821 119.352 97.3411 118.666 97.6581 118.078C97.9751 117.481 98.4091 117.019 98.9601 116.692C99.5201 116.365 100.141 116.202 100.822 116.202C101.494 116.202 102.077 116.347 102.572 116.636C103.067 116.925 103.435 117.289 103.678 117.728V116.328H104.966V124H103.678V122.572C103.426 123.02 103.048 123.393 102.544 123.692C102.049 123.981 101.471 124.126 100.808 124.126C100.127 124.126 99.5111 123.958 98.9601 123.622C98.4091 123.286 97.9751 122.815 97.6581 122.208C97.3411 121.601 97.1821 120.911 97.1821 120.136ZM103.678 120.15C103.678 119.571 103.561 119.067 103.328 118.638C103.095 118.209 102.777 117.882 102.376 117.658C101.984 117.425 101.55 117.308 101.074 117.308C100.598 117.308 100.164 117.42 99.7721 117.644C99.3801 117.868 99.0671 118.195 98.8341 118.624C98.6011 119.053 98.4841 119.557 98.4841 120.136C98.4841 120.724 98.6011 121.237 98.8341 121.676C99.0671 122.105 99.3801 122.437 99.7721 122.67C100.164 122.894 100.598 123.006 101.074 123.006C101.55 123.006 101.984 122.894 102.376 122.67C102.777 122.437 103.095 122.105 103.328 121.676C103.561 121.237 103.678 120.729 103.678 120.15ZM106.643 120.15C106.643 119.357 106.802 118.666 107.119 118.078C107.436 117.481 107.875 117.019 108.435 116.692C109.004 116.365 109.653 116.202 110.381 116.202C111.324 116.202 112.098 116.431 112.705 116.888C113.321 117.345 113.727 117.98 113.923 118.792H112.551C112.42 118.325 112.164 117.957 111.781 117.686C111.408 117.415 110.941 117.28 110.381 117.28C109.653 117.28 109.065 117.532 108.617 118.036C108.169 118.531 107.945 119.235 107.945 120.15C107.945 121.074 108.169 121.788 108.617 122.292C109.065 122.796 109.653 123.048 110.381 123.048C110.941 123.048 111.408 122.917 111.781 122.656C112.154 122.395 112.411 122.021 112.551 121.536H113.923C113.718 122.32 113.307 122.95 112.691 123.426C112.075 123.893 111.305 124.126 110.381 124.126C109.653 124.126 109.004 123.963 108.435 123.636C107.875 123.309 107.436 122.847 107.119 122.25C106.802 121.653 106.643 120.953 106.643 120.15ZM117.177 117.378V121.9C117.177 122.273 117.256 122.539 117.415 122.698C117.574 122.847 117.849 122.922 118.241 122.922H119.179V124H118.031C117.322 124 116.79 123.837 116.435 123.51C116.08 123.183 115.903 122.647 115.903 121.9V117.378H114.909V116.328H115.903V114.396H117.177V116.328H119.179V117.378H117.177ZM121.381 115.082C121.138 115.082 120.933 114.998 120.765 114.83C120.597 114.662 120.513 114.457 120.513 114.214C120.513 113.971 120.597 113.766 120.765 113.598C120.933 113.43 121.138 113.346 121.381 113.346C121.614 113.346 121.81 113.43 121.969 113.598C122.137 113.766 122.221 113.971 122.221 114.214C122.221 114.457 122.137 114.662 121.969 114.83C121.81 114.998 121.614 115.082 121.381 115.082ZM121.997 116.328V124H120.723V116.328H121.997ZM127.514 124.126C126.795 124.126 126.142 123.963 125.554 123.636C124.975 123.309 124.518 122.847 124.182 122.25C123.855 121.643 123.692 120.943 123.692 120.15C123.692 119.366 123.86 118.675 124.196 118.078C124.541 117.471 125.008 117.009 125.596 116.692C126.184 116.365 126.842 116.202 127.57 116.202C128.298 116.202 128.956 116.365 129.544 116.692C130.132 117.009 130.594 117.467 130.93 118.064C131.275 118.661 131.448 119.357 131.448 120.15C131.448 120.943 131.271 121.643 130.916 122.25C130.571 122.847 130.099 123.309 129.502 123.636C128.905 123.963 128.242 124.126 127.514 124.126ZM127.514 123.006C127.971 123.006 128.401 122.899 128.802 122.684C129.203 122.469 129.525 122.147 129.768 121.718C130.02 121.289 130.146 120.766 130.146 120.15C130.146 119.534 130.025 119.011 129.782 118.582C129.539 118.153 129.222 117.835 128.83 117.63C128.438 117.415 128.013 117.308 127.556 117.308C127.089 117.308 126.66 117.415 126.268 117.63C125.885 117.835 125.577 118.153 125.344 118.582C125.111 119.011 124.994 119.534 124.994 120.15C124.994 120.775 125.106 121.303 125.33 121.732C125.563 122.161 125.871 122.483 126.254 122.698C126.637 122.903 127.057 123.006 127.514 123.006ZM136.861 116.188C137.794 116.188 138.55 116.473 139.129 117.042C139.708 117.602 139.997 118.414 139.997 119.478V124H138.737V119.66C138.737 118.895 138.546 118.311 138.163 117.91C137.78 117.499 137.258 117.294 136.595 117.294C135.923 117.294 135.386 117.504 134.985 117.924C134.593 118.344 134.397 118.955 134.397 119.758V124H133.123V116.328H134.397V117.42C134.649 117.028 134.99 116.725 135.419 116.51C135.858 116.295 136.338 116.188 136.861 116.188Z" fill="#A2A2A7"/>
    <path d="M160.258 164.696C163.038 167.722 167.769 167.941 170.576 164.939C181.87 152.863 189.954 138.092 194.02 121.982C198.086 105.872 197.98 89.0329 193.769 73.0438C192.723 69.0695 188.455 67.0167 184.571 68.3618C180.688 69.7068 178.665 73.9403 179.657 77.9285C182.951 91.1619 182.946 105.043 179.59 118.34C176.234 131.636 169.651 143.857 160.473 153.943C157.706 156.982 157.478 161.669 160.258 164.696Z" fill="url(#paint0_linear_1_4885)"/>
    <path d="M150.491 172.858C152.726 176.108 151.916 180.58 148.511 182.573C133.915 191.118 117.317 195.761 100.324 195.991C83.3317 196.221 66.6139 192.028 51.7922 183.88C48.3352 181.98 47.4041 177.531 49.5511 174.222C51.698 170.913 56.1093 170 59.5896 171.857C72.0215 178.491 85.9647 181.898 100.131 181.707C114.298 181.515 128.144 177.733 140.392 170.765C143.821 168.815 148.255 169.608 150.491 172.858Z" fill="url(#paint1_linear_1_4885)"/>
    <path d="M12.5814 69.8653C8.84391 68.6485 4.80081 70.6877 3.85841 74.5036C-0.207087 90.965 0.0589128 108.243 4.69001 124.639C9.32101 141.034 18.1339 155.898 30.2107 167.8C33.0103 170.559 37.5228 170.182 40.0714 167.189C42.62 164.197 42.2354 159.725 39.4701 156.932C29.5229 146.884 22.2522 134.45 18.3879 120.77C14.5237 107.089 14.215 92.689 17.4354 78.9215C18.3307 75.0942 16.3189 71.0821 12.5814 69.8653Z" fill="#B678FF"/>
    <path d="M179.847 57.556C183.601 55.6778 185.148 51.0933 182.984 47.4958C174.881 34.0212 163.633 22.6601 150.159 14.4133C134.519 4.84043 116.506 -0.151976 98.169 0.00352481C79.8318 0.159124 61.9063 5.45633 46.4303 15.2931C33.098 23.7673 22.0444 35.3176 14.1713 48.9276C12.0692 52.5614 13.6928 57.119 17.4785 58.9332C21.2642 60.7473 25.7742 59.127 27.9278 55.5235C34.5365 44.4657 43.6543 35.0706 54.5851 28.1228C67.6604 19.812 82.8052 15.3364 98.298 15.205C113.79 15.0736 129.009 19.2916 142.223 27.3795C153.27 34.1409 162.546 43.38 169.341 54.3241C171.556 57.8905 176.093 59.4341 179.847 57.556Z" fill="#0066FF"/>
    <path d="M179.847 57.556C183.601 55.6778 185.148 51.0933 182.984 47.4958C174.881 34.0212 163.633 22.6601 150.159 14.4133C134.519 4.84043 116.506 -0.151976 98.169 0.00352481C79.8318 0.159124 61.9063 5.45633 46.4303 15.2931C33.098 23.7673 22.0444 35.3176 14.1713 48.9276C12.0692 52.5614 13.6928 57.119 17.4785 58.9332C21.2642 60.7473 25.7742 59.127 27.9278 55.5235C34.5365 44.4657 43.6543 35.0706 54.5851 28.1228C67.6604 19.812 82.8052 15.3364 98.298 15.205C113.79 15.0736 129.009 19.2916 142.223 27.3795C153.27 34.1409 162.546 43.38 169.341 54.3241C171.556 57.8905 176.093 59.4341 179.847 57.556Z" fill="url(#paint2_linear_1_4885)"/>
    <defs>
        <linearGradient id="paint0_linear_1_4885" x1="162.663" y1="168.991" x2="193.013" y2="168.991" gradientUnits="userSpaceOnUse">
            <stop stop-color="#D0AFE5"/>
            <stop offset="1" stop-color="#D79FD3"/>
        </linearGradient>
        <linearGradient id="paint1_linear_1_4885" x1="33.6709" y1="181.076" x2="162.101" y2="181.076" gradientUnits="userSpaceOnUse">
            <stop stop-color="#6EF9BF"/>
            <stop offset="1" stop-color="#62E4C3"/>
        </linearGradient>
        <linearGradient id="paint2_linear_1_4885" x1="217.182" y1="27.445" x2="3.88176" y2="27.445" gradientUnits="userSpaceOnUse">
            <stop stop-color="#F572A3"/>
            <stop offset="1" stop-color="#D5A2E9"/>
        </linearGradient>
    </defs>
</svg>