<svg width="54" height="76" viewBox="0 0 54 76" fill="none"
    xmlns="http://www.w3.org/2000/svg">
    <path d="M13.184 71.038H16.356V72H12.001V62.939H13.184V71.038ZM20.7193 72.117C20.052 72.117 19.4453 71.9653 18.8993 71.662C18.362 71.3587 17.9373 70.9297 17.6253 70.375C17.322 69.8117 17.1703 69.1617 17.1703 68.425C17.1703 67.697 17.3263 67.0557 17.6383 66.501C17.959 65.9377 18.3923 65.5087 18.9383 65.214C19.4843 64.9107 20.0953 64.759 20.7713 64.759C21.4473 64.759 22.0583 64.9107 22.6043 65.214C23.1503 65.5087 23.5793 65.9333 23.8913 66.488C24.212 67.0427 24.3723 67.6883 24.3723 68.425C24.3723 69.1617 24.2077 69.8117 23.8783 70.375C23.5577 70.9297 23.12 71.3587 22.5653 71.662C22.0107 71.9653 21.3953 72.117 20.7193 72.117ZM20.7193 71.077C21.144 71.077 21.5427 70.9773 21.9153 70.778C22.288 70.5787 22.587 70.2797 22.8123 69.881C23.0463 69.4823 23.1633 68.997 23.1633 68.425C23.1633 67.853 23.0507 67.3677 22.8253 66.969C22.6 66.5703 22.3053 66.2757 21.9413 66.085C21.5773 65.8857 21.183 65.786 20.7583 65.786C20.325 65.786 19.9263 65.8857 19.5623 66.085C19.207 66.2757 18.921 66.5703 18.7043 66.969C18.4877 67.3677 18.3793 67.853 18.3793 68.425C18.3793 69.0057 18.4833 69.4953 18.6913 69.894C18.908 70.2927 19.194 70.5917 19.5493 70.791C19.9047 70.9817 20.2947 71.077 20.7193 71.077ZM25.4858 68.412C25.4858 67.684 25.6331 67.047 25.9278 66.501C26.2224 65.9463 26.6254 65.5173 27.1368 65.214C27.6568 64.9107 28.2331 64.759 28.8658 64.759C29.4898 64.759 30.0314 64.8933 30.4908 65.162C30.9501 65.4307 31.2924 65.7687 31.5178 66.176V64.876H32.7138V72H31.5178V70.674C31.2838 71.09 30.9328 71.4367 30.4648 71.714C30.0054 71.9827 29.4681 72.117 28.8528 72.117C28.2201 72.117 27.6481 71.961 27.1368 71.649C26.6254 71.337 26.2224 70.8993 25.9278 70.336C25.6331 69.7727 25.4858 69.1313 25.4858 68.412ZM31.5178 68.425C31.5178 67.8877 31.4094 67.4197 31.1928 67.021C30.9761 66.6223 30.6814 66.319 30.3088 66.111C29.9448 65.8943 29.5418 65.786 29.0998 65.786C28.6578 65.786 28.2548 65.89 27.8908 66.098C27.5268 66.306 27.2364 66.6093 27.0198 67.008C26.8031 67.4067 26.6948 67.8747 26.6948 68.412C26.6948 68.958 26.8031 69.4347 27.0198 69.842C27.2364 70.2407 27.5268 70.5483 27.8908 70.765C28.2548 70.973 28.6578 71.077 29.0998 71.077C29.5418 71.077 29.9448 70.973 30.3088 70.765C30.6814 70.5483 30.9761 70.2407 31.1928 69.842C31.4094 69.4347 31.5178 68.9623 31.5178 68.425ZM38.1839 64.746C39.0506 64.746 39.7526 65.0103 40.2899 65.539C40.8272 66.059 41.0959 66.813 41.0959 67.801V72H39.9259V67.97C39.9259 67.2593 39.7482 66.7177 39.3929 66.345C39.0376 65.9637 38.5522 65.773 37.9369 65.773C37.3129 65.773 36.8146 65.968 36.4419 66.358C36.0779 66.748 35.8959 67.3157 35.8959 68.061V72H34.7129V64.876H35.8959V65.89C36.1299 65.526 36.4462 65.2443 36.8449 65.045C37.2522 64.8457 37.6986 64.746 38.1839 64.746Z" fill="#A2A2A7"/>
    <path d="M0 27C0 12.0883 12.0883 0 27 0C41.9117 0 54 12.0883 54 27C54 41.9117 41.9117 54 27 54C12.0883 54 0 41.9117 0 27Z" fill="#1E1E2D"/>
    <path d="M27 21V22.5" stroke="white" stroke-width="1.4" stroke-linecap="round" stroke-linejoin="round"/>
    <path d="M27 33V31.5" stroke="white" stroke-width="1.4" stroke-linecap="round" stroke-linejoin="round"/>
    <path d="M29.9844 24.6C29.9064 23.4288 28.9404 22.5 27.75 22.5H26.106C24.942 22.5 24 23.4432 24 24.606C24 25.572 24.6576 26.4144 25.5936 26.6496L28.4052 27.3552C29.3424 27.5904 29.9988 28.4328 29.9988 29.3988C29.9988 30.5628 29.0556 31.5048 27.8928 31.5048H26.2488C25.056 31.5048 24.09 30.5736 24.0132 29.4" stroke="white" stroke-width="1.4" stroke-linecap="round" stroke-linejoin="round"/>
    <path d="M15.75 27C15.75 20.7868 20.7868 15.75 27 15.75C33.2132 15.75 38.25 20.7868 38.25 27C38.25 33.2132 33.2132 38.25 27 38.25C20.7868 38.25 15.75 33.2132 15.75 27Z" stroke="white" stroke-width="1.5"/>
</svg>
