<svg xmlns="http://www.w3.org/2000/svg" width="80" height="80" viewBox="0 0 80 80" fill="none">
    <path d="M77.381 32.0125C75.6614 27.8613 73.1235 24.0489 69.8493 20.7752C63.4722 14.3982 55.0461 10.8114 46.0561 10.6309C48.9353 14.6634 50.4922 19.3552 50.7278 24.103C51.7451 24.3592 52.7395 24.69 53.7056 25.0897C56.3235 26.1736 58.7258 27.7727 60.7888 29.8356C64.9161 33.9616 67.1879 39.4481 67.1879 45.2836C67.1879 51.1187 64.9161 56.6057 60.7888 60.7316C56.6629 64.859 51.1764 67.1307 45.3408 67.1307C39.5053 67.1307 34.0192 64.859 29.8928 60.7316C27.0251 57.8639 25.1225 54.3905 24.1856 50.7194C19.4315 50.4963 14.7306 48.95 10.6895 46.076C10.8891 55.0388 14.4731 63.4328 20.8324 69.7921C27.3789 76.3395 36.0826 79.9441 45.3403 79.9441C54.598 79.9441 63.3023 76.3395 69.8483 69.7921C76.3958 63.2456 80.0003 54.5428 80.0003 45.2841C80.0013 40.6555 79.1007 36.1643 77.381 32.0125ZM23.8686 41.2961C24.6428 37.0945 26.6507 33.0787 29.8933 29.8356C33.0507 26.6783 37.0047 24.6067 41.3025 23.8072C40.9564 20.2462 39.4215 16.7805 36.6998 14.0587C36.0477 13.4067 35.3516 12.8212 34.6215 12.306C29.4782 13.9707 24.7668 16.8417 20.8328 20.7757C16.8798 24.7288 13.9996 29.4684 12.3378 34.6409C12.853 35.3638 13.4322 36.048 14.0714 36.6886C16.806 39.4213 20.2909 40.9591 23.8686 41.2961Z" fill="url(#paint0_linear_1_4906)"/>
    <path d="M50.7275 24.1029C48.9872 23.6634 47.1818 23.4365 45.3405 23.4365C43.9708 23.4365 42.6202 23.5619 41.3018 23.8066C41.7513 28.4093 40.2164 33.1706 36.699 36.688C33.1945 40.1925 28.4548 41.7288 23.8674 41.2955C23.2934 44.4156 23.3987 47.6366 24.1853 50.7184C24.585 50.7375 24.9848 50.7466 25.3846 50.7466C31.8846 50.7466 38.3876 48.2724 43.336 43.324C48.2844 38.3742 50.7586 31.8741 50.7586 25.3736C50.7596 24.9499 50.7495 24.5257 50.7275 24.1029ZM25.3855 9.38025C27.4346 9.38025 29.4832 9.76996 31.4092 10.5503C32.529 11.0037 33.6091 11.5883 34.6217 12.3059C38.0376 11.199 41.6445 10.6236 45.3415 10.6236C45.5799 10.6236 45.8193 10.626 46.0563 10.6312C45.2529 9.50617 44.3471 8.43232 43.3374 7.42262C33.4391 -2.47421 17.3338 -2.47421 7.43555 7.42262C2.64082 12.2174 0 18.5934 0 25.374C0 32.1546 2.64082 38.5298 7.43555 43.3245C8.45961 44.3471 9.54878 45.2644 10.6901 46.0754C10.6839 45.8126 10.681 45.5473 10.681 45.2836C10.681 41.6163 11.246 38.0352 12.338 34.6408C10.4187 31.9526 9.38457 28.743 9.38457 25.374C9.38457 21.0997 11.0492 17.081 14.0716 14.0587C17.1902 10.9396 21.2879 9.38025 25.3855 9.38025Z" fill="url(#paint1_linear_1_4906)"/>
    <defs>
        <linearGradient id="paint0_linear_1_4906" x1="80.0002" y1="45.2874" x2="10.6895" y2="45.2874" gradientUnits="userSpaceOnUse">
            <stop stop-color="#00FFE5"/>
            <stop offset="1" stop-color="#0066FF"/>
        </linearGradient>
        <linearGradient id="paint1_linear_1_4906" x1="50.7586" y1="25.3733" x2="2.42036e-05" y2="25.3733" gradientUnits="userSpaceOnUse">
            <stop stop-color="#00FFE5"/>
            <stop offset="1" stop-color="#0066FF"/>
        </linearGradient>
    </defs>
</svg>