<svg width="54" height="76" viewBox="0 0 54 76" fill="none"
    xmlns="http://www.w3.org/2000/svg">
    <path d="M7.772 72L5.614 68.295H4.184V72H3.001V62.939H5.926C6.61067 62.939 7.187 63.056 7.655 63.29C8.13167 63.524 8.487 63.8403 8.721 64.239C8.955 64.6377 9.072 65.0927 9.072 65.604C9.072 66.228 8.89 66.7783 8.526 67.255C8.17067 67.7317 7.63333 68.048 6.914 68.204L9.189 72H7.772ZM4.184 67.346H5.926C6.56733 67.346 7.04833 67.19 7.369 66.878C7.68967 66.5573 7.85 66.1327 7.85 65.604C7.85 65.0667 7.68967 64.6507 7.369 64.356C7.057 64.0613 6.576 63.914 5.926 63.914H4.184V67.346ZM17.4102 68.165C17.4102 68.3903 17.3972 68.6287 17.3712 68.88H11.6772C11.7205 69.582 11.9588 70.1323 12.3922 70.531C12.8342 70.921 13.3672 71.116 13.9912 71.116C14.5025 71.116 14.9272 70.999 15.2652 70.765C15.6118 70.5223 15.8545 70.2017 15.9932 69.803H17.2672C17.0765 70.4877 16.6952 71.0467 16.1232 71.48C15.5512 71.9047 14.8405 72.117 13.9912 72.117C13.3152 72.117 12.7085 71.9653 12.1712 71.662C11.6425 71.3587 11.2265 70.9297 10.9232 70.375C10.6198 69.8117 10.4682 69.1617 10.4682 68.425C10.4682 67.6883 10.6155 67.0427 10.9102 66.488C11.2048 65.9333 11.6165 65.5087 12.1452 65.214C12.6825 64.9107 13.2978 64.759 13.9912 64.759C14.6672 64.759 15.2652 64.9063 15.7852 65.201C16.3052 65.4957 16.7038 65.903 16.9812 66.423C17.2672 66.9343 17.4102 67.515 17.4102 68.165ZM16.1882 67.918C16.1882 67.4673 16.0885 67.0817 15.8892 66.761C15.6898 66.4317 15.4168 66.1847 15.0702 66.02C14.7322 65.8467 14.3552 65.76 13.9392 65.76C13.3412 65.76 12.8298 65.9507 12.4052 66.332C11.9892 66.7133 11.7508 67.242 11.6902 67.918H16.1882ZM18.5297 68.425C18.5297 67.6883 18.677 67.047 18.9717 66.501C19.2664 65.9463 19.6737 65.5173 20.1937 65.214C20.7224 64.9107 21.3247 64.759 22.0007 64.759C22.876 64.759 23.5954 64.9713 24.1587 65.396C24.7307 65.8207 25.1077 66.41 25.2897 67.164H24.0157C23.8944 66.7307 23.656 66.3883 23.3007 66.137C22.954 65.8857 22.5207 65.76 22.0007 65.76C21.3247 65.76 20.7787 65.994 20.3627 66.462C19.9467 66.9213 19.7387 67.5757 19.7387 68.425C19.7387 69.283 19.9467 69.946 20.3627 70.414C20.7787 70.882 21.3247 71.116 22.0007 71.116C22.5207 71.116 22.954 70.9947 23.3007 70.752C23.6474 70.5093 23.8857 70.1627 24.0157 69.712H25.2897C25.099 70.44 24.7177 71.025 24.1457 71.467C23.5737 71.9003 22.8587 72.117 22.0007 72.117C21.3247 72.117 20.7224 71.9653 20.1937 71.662C19.6737 71.3587 19.2664 70.9297 18.9717 70.375C18.677 69.8203 18.5297 69.1703 18.5297 68.425ZM33.3682 68.165C33.3682 68.3903 33.3552 68.6287 33.3292 68.88H27.6352C27.6785 69.582 27.9169 70.1323 28.3502 70.531C28.7922 70.921 29.3252 71.116 29.9492 71.116C30.4605 71.116 30.8852 70.999 31.2232 70.765C31.5699 70.5223 31.8125 70.2017 31.9512 69.803H33.2252C33.0345 70.4877 32.6532 71.0467 32.0812 71.48C31.5092 71.9047 30.7985 72.117 29.9492 72.117C29.2732 72.117 28.6665 71.9653 28.1292 71.662C27.6005 71.3587 27.1845 70.9297 26.8812 70.375C26.5779 69.8117 26.4262 69.1617 26.4262 68.425C26.4262 67.6883 26.5735 67.0427 26.8682 66.488C27.1629 65.9333 27.5745 65.5087 28.1032 65.214C28.6405 64.9107 29.2559 64.759 29.9492 64.759C30.6252 64.759 31.2232 64.9063 31.7432 65.201C32.2632 65.4957 32.6619 65.903 32.9392 66.423C33.2252 66.9343 33.3682 67.515 33.3682 68.165ZM32.1462 67.918C32.1462 67.4673 32.0465 67.0817 31.8472 66.761C31.6479 66.4317 31.3749 66.1847 31.0282 66.02C30.6902 65.8467 30.3132 65.76 29.8972 65.76C29.2992 65.76 28.7879 65.9507 28.3632 66.332C27.9472 66.7133 27.7089 67.242 27.6482 67.918H32.1462ZM35.5407 63.719C35.3154 63.719 35.1247 63.641 34.9687 63.485C34.8127 63.329 34.7347 63.1383 34.7347 62.913C34.7347 62.6877 34.8127 62.497 34.9687 62.341C35.1247 62.185 35.3154 62.107 35.5407 62.107C35.7574 62.107 35.9394 62.185 36.0867 62.341C36.2427 62.497 36.3207 62.6877 36.3207 62.913C36.3207 63.1383 36.2427 63.329 36.0867 63.485C35.9394 63.641 35.7574 63.719 35.5407 63.719ZM36.1127 64.876V72H34.9297V64.876H36.1127ZM40.7809 70.908L42.9909 64.876H44.2519L41.4569 72H40.0789L37.2839 64.876H38.5579L40.7809 70.908ZM51.916 68.165C51.916 68.3903 51.903 68.6287 51.877 68.88H46.183C46.2264 69.582 46.4647 70.1323 46.898 70.531C47.34 70.921 47.873 71.116 48.497 71.116C49.0084 71.116 49.433 70.999 49.771 70.765C50.1177 70.5223 50.3604 70.2017 50.499 69.803H51.773C51.5824 70.4877 51.201 71.0467 50.629 71.48C50.057 71.9047 49.3464 72.117 48.497 72.117C47.821 72.117 47.2144 71.9653 46.677 71.662C46.1484 71.3587 45.7324 70.9297 45.429 70.375C45.1257 69.8117 44.974 69.1617 44.974 68.425C44.974 67.6883 45.1214 67.0427 45.416 66.488C45.7107 65.9333 46.1224 65.5087 46.651 65.214C47.1884 64.9107 47.8037 64.759 48.497 64.759C49.173 64.759 49.771 64.9063 50.291 65.201C50.811 65.4957 51.2097 65.903 51.487 66.423C51.773 66.9343 51.916 67.515 51.916 68.165ZM50.694 67.918C50.694 67.4673 50.5944 67.0817 50.395 66.761C50.1957 66.4317 49.9227 66.1847 49.576 66.02C49.238 65.8467 48.861 65.76 48.445 65.76C47.847 65.76 47.3357 65.9507 46.911 66.332C46.495 66.7133 46.2567 67.242 46.196 67.918H50.694Z" fill="#A2A2A7"/>
    <path d="M0 27C0 12.0883 12.0883 0 27 0C41.9117 0 54 12.0883 54 27C54 41.9117 41.9117 54 27 54C12.0883 54 0 41.9117 0 27Z" fill="#1E1E2D"/>
    <path d="M27.4858 35.2392V19" stroke="white" stroke-width="1.5" stroke-linecap="round" stroke-linejoin="round"/>
    <path d="M21 28.7349L27.4751 35.2522L33.9502 28.7349" stroke="white" stroke-width="1.5" stroke-linecap="round" stroke-linejoin="round"/>
</svg>
