<svg width="54" height="76" viewBox="0 0 54 76" fill="none"
    xmlns="http://www.w3.org/2000/svg">
    <path d="M16.874 72.091C16.276 72.091 15.7387 71.987 15.262 71.779C14.794 71.5623 14.4257 71.2677 14.157 70.895C13.8883 70.5137 13.7497 70.076 13.741 69.582H15.002C15.0453 70.0067 15.2187 70.3663 15.522 70.661C15.834 70.947 16.2847 71.09 16.874 71.09C17.4373 71.09 17.8793 70.9513 18.2 70.674C18.5293 70.388 18.694 70.024 18.694 69.582C18.694 69.2353 18.5987 68.9537 18.408 68.737C18.2173 68.5203 17.979 68.3557 17.693 68.243C17.407 68.1303 17.0213 68.009 16.536 67.879C15.938 67.723 15.457 67.567 15.093 67.411C14.7377 67.255 14.43 67.0123 14.17 66.683C13.9187 66.345 13.793 65.8943 13.793 65.331C13.793 64.837 13.9187 64.3993 14.17 64.018C14.4213 63.6367 14.7723 63.342 15.223 63.134C15.6823 62.926 16.2067 62.822 16.796 62.822C17.6453 62.822 18.3387 63.0343 18.876 63.459C19.422 63.8837 19.7297 64.447 19.799 65.149H18.499C18.4557 64.8023 18.2737 64.499 17.953 64.239C17.6323 63.9703 17.2077 63.836 16.679 63.836C16.185 63.836 15.782 63.966 15.47 64.226C15.158 64.4773 15.002 64.8327 15.002 65.292C15.002 65.6213 15.093 65.89 15.275 66.098C15.4657 66.306 15.6953 66.4663 15.964 66.579C16.2413 66.683 16.627 66.8043 17.121 66.943C17.719 67.1077 18.2 67.2723 18.564 67.437C18.928 67.593 19.24 67.84 19.5 68.178C19.76 68.5073 19.89 68.958 19.89 69.53C19.89 69.972 19.773 70.388 19.539 70.778C19.305 71.168 18.9583 71.4843 18.499 71.727C18.0397 71.9697 17.498 72.091 16.874 72.091ZM28.1309 68.165C28.1309 68.3903 28.1179 68.6287 28.0919 68.88H22.3979C22.4412 69.582 22.6795 70.1323 23.1129 70.531C23.5549 70.921 24.0879 71.116 24.7119 71.116C25.2232 71.116 25.6479 70.999 25.9859 70.765C26.3325 70.5223 26.5752 70.2017 26.7139 69.803H27.9879C27.7972 70.4877 27.4159 71.0467 26.8439 71.48C26.2719 71.9047 25.5612 72.117 24.7119 72.117C24.0359 72.117 23.4292 71.9653 22.8919 71.662C22.3632 71.3587 21.9472 70.9297 21.6439 70.375C21.3405 69.8117 21.1889 69.1617 21.1889 68.425C21.1889 67.6883 21.3362 67.0427 21.6309 66.488C21.9255 65.9333 22.3372 65.5087 22.8659 65.214C23.4032 64.9107 24.0185 64.759 24.7119 64.759C25.3879 64.759 25.9859 64.9063 26.5059 65.201C27.0259 65.4957 27.4245 65.903 27.7019 66.423C27.9879 66.9343 28.1309 67.515 28.1309 68.165ZM26.9089 67.918C26.9089 67.4673 26.8092 67.0817 26.6099 66.761C26.4105 66.4317 26.1375 66.1847 25.7909 66.02C25.4529 65.8467 25.0759 65.76 24.6599 65.76C24.0619 65.76 23.5505 65.9507 23.1259 66.332C22.7099 66.7133 22.4715 67.242 22.4109 67.918H26.9089ZM33.1634 64.746C34.0301 64.746 34.7321 65.0103 35.2694 65.539C35.8067 66.059 36.0754 66.813 36.0754 67.801V72H34.9054V67.97C34.9054 67.2593 34.7277 66.7177 34.3724 66.345C34.0171 65.9637 33.5317 65.773 32.9164 65.773C32.2924 65.773 31.7941 65.968 31.4214 66.358C31.0574 66.748 30.8754 67.3157 30.8754 68.061V72H29.6924V64.876H30.8754V65.89C31.1094 65.526 31.4257 65.2443 31.8244 65.045C32.2317 64.8457 32.6781 64.746 33.1634 64.746ZM39.4508 65.851V70.05C39.4508 70.3967 39.5245 70.6437 39.6718 70.791C39.8192 70.9297 40.0748 70.999 40.4388 70.999H41.3098V72H40.2438C39.5852 72 39.0912 71.8483 38.7618 71.545C38.4325 71.2417 38.2678 70.7433 38.2678 70.05V65.851H37.3448V64.876H38.2678V63.082H39.4508V64.876H41.3098V65.851H39.4508Z" fill="#1E1E2D"/>
    <path d="M0 27C0 12.0883 12.0883 0 27 0C41.9117 0 54 12.0883 54 27C54 41.9117 41.9117 54 27 54C12.0883 54 0 41.9117 0 27Z" fill="#F4F4F4"/>
    <path d="M27.4858 19.0129V35.2521" stroke="#1E1E2D" stroke-width="1.5" stroke-linecap="round" stroke-linejoin="round"/>
    <path d="M21 25.5173L27.4751 19L33.9502 25.5173" stroke="#1E1E2D" stroke-width="1.5" stroke-linecap="round" stroke-linejoin="round"/>
</svg>
