<svg xmlns="http://www.w3.org/2000/svg" width="22" height="22" viewBox="0 0 22 22" fill="none">
    <path d="M12.6204 9.37947C13.5153 10.2744 13.5153 11.7254 12.6204 12.6204C11.7254 13.5153 10.2744 13.5153 9.37947 12.6204C8.48451 11.7254 8.48451 10.2744 9.37947 9.37947C10.2744 8.48451 11.7254 8.48451 12.6204 9.37947Z" stroke="#A2A2A7" stroke-width="1.3" stroke-linecap="round" stroke-linejoin="round"/>
    <path d="M13.6115 3.77669L14.1459 3.95452C14.6354 4.11769 14.9663 4.57602 14.9663 5.0921V5.85935C14.9663 6.51202 15.487 7.0446 16.1396 7.05835L16.9078 7.07485C17.3524 7.08402 17.7557 7.33977 17.9546 7.7376L18.2067 8.24177C18.4377 8.70377 18.347 9.2611 17.9821 9.62594L17.4395 10.1686C16.9784 10.6297 16.9701 11.3749 17.4211 11.8461L17.9528 12.4016C18.2608 12.7234 18.3653 13.1881 18.2241 13.6107L18.0463 14.1451C17.8831 14.6346 17.4248 14.9655 16.9087 14.9655H16.1415C15.4888 14.9655 14.9562 15.4862 14.9425 16.1389L14.926 16.907C14.9168 17.3516 14.6611 17.7549 14.2632 17.9539L13.7591 18.2059C13.2971 18.4369 12.7397 18.3462 12.3749 17.9814L11.8322 17.4387C11.3711 16.9776 10.6259 16.9694 10.1547 17.4204L9.59923 17.952C9.27748 18.26 8.81273 18.3645 8.39015 18.2234L7.85573 18.0455C7.36623 17.8824 7.03531 17.424 7.03531 16.9079V16.1407C7.03531 15.488 6.51465 14.9554 5.86198 14.9417L5.09381 14.9252C4.64923 14.916 4.2459 14.6603 4.04698 14.2624L3.7949 13.7583C3.5639 13.2963 3.65465 12.7389 4.01948 12.3741L4.56215 11.8314C5.02323 11.3704 5.03148 10.6251 4.58048 10.1539L4.04881 9.59844C3.7399 9.27577 3.6354 8.8101 3.77656 8.38844L3.9544 7.85402C4.11756 7.36452 4.5759 7.0336 5.09198 7.0336H5.85923C6.5119 7.0336 7.04448 6.51294 7.05823 5.86027L7.07473 5.0921C7.08573 4.64752 7.34056 4.24419 7.7384 4.04527L8.24256 3.79319C8.70456 3.56219 9.2619 3.65294 9.62673 4.01777L10.1694 4.56044C10.6305 5.02152 11.3757 5.02977 11.8469 4.57877L12.4024 4.0471C12.7241 3.74002 13.1898 3.63552 13.6115 3.77669Z" stroke="#A2A2A7" stroke-width="1.3" stroke-linecap="round" stroke-linejoin="round"/>
</svg>