<svg width="54" height="76" viewBox="0 0 54 76" fill="none"
    xmlns="http://www.w3.org/2000/svg">
    <path d="M12.578 62.939V63.901H10.108V72H8.925V63.901H6.442V62.939H12.578ZM17.1412 72.117C16.4739 72.117 15.8672 71.9653 15.3212 71.662C14.7839 71.3587 14.3592 70.9297 14.0472 70.375C13.7439 69.8117 13.5922 69.1617 13.5922 68.425C13.5922 67.697 13.7482 67.0557 14.0602 66.501C14.3809 65.9377 14.8142 65.5087 15.3602 65.214C15.9062 64.9107 16.5172 64.759 17.1932 64.759C17.8692 64.759 18.4802 64.9107 19.0262 65.214C19.5722 65.5087 20.0012 65.9333 20.3132 66.488C20.6339 67.0427 20.7942 67.6883 20.7942 68.425C20.7942 69.1617 20.6295 69.8117 20.3002 70.375C19.9795 70.9297 19.5419 71.3587 18.9872 71.662C18.4325 71.9653 17.8172 72.117 17.1412 72.117ZM17.1412 71.077C17.5659 71.077 17.9645 70.9773 18.3372 70.778C18.7099 70.5787 19.0089 70.2797 19.2342 69.881C19.4682 69.4823 19.5852 68.997 19.5852 68.425C19.5852 67.853 19.4725 67.3677 19.2472 66.969C19.0219 66.5703 18.7272 66.2757 18.3632 66.085C17.9992 65.8857 17.6049 65.786 17.1802 65.786C16.7469 65.786 16.3482 65.8857 15.9842 66.085C15.6289 66.2757 15.3429 66.5703 15.1262 66.969C14.9095 67.3677 14.8012 67.853 14.8012 68.425C14.8012 69.0057 14.9052 69.4953 15.1132 69.894C15.3299 70.2927 15.6159 70.5917 15.9712 70.791C16.3265 70.9817 16.7165 71.077 17.1412 71.077ZM23.5326 66.189C23.7666 65.7817 24.1133 65.4437 24.5726 65.175C25.0406 64.8977 25.5823 64.759 26.1976 64.759C26.8303 64.759 27.4023 64.9107 27.9136 65.214C28.4336 65.5173 28.841 65.9463 29.1356 66.501C29.4303 67.047 29.5776 67.684 29.5776 68.412C29.5776 69.1313 29.4303 69.7727 29.1356 70.336C28.841 70.8993 28.4336 71.337 27.9136 71.649C27.4023 71.961 26.8303 72.117 26.1976 72.117C25.591 72.117 25.0536 71.9827 24.5856 71.714C24.1263 71.4367 23.7753 71.0943 23.5326 70.687V75.38H22.3496V64.876H23.5326V66.189ZM28.3686 68.412C28.3686 67.8747 28.2603 67.4067 28.0436 67.008C27.827 66.6093 27.5323 66.306 27.1596 66.098C26.7956 65.89 26.3926 65.786 25.9506 65.786C25.5173 65.786 25.1143 65.8943 24.7416 66.111C24.3776 66.319 24.083 66.6267 23.8576 67.034C23.641 67.4327 23.5326 67.8963 23.5326 68.425C23.5326 68.9623 23.641 69.4347 23.8576 69.842C24.083 70.2407 24.3776 70.5483 24.7416 70.765C25.1143 70.973 25.5173 71.077 25.9506 71.077C26.3926 71.077 26.7956 70.973 27.1596 70.765C27.5323 70.5483 27.827 70.2407 28.0436 69.842C28.2603 69.4347 28.3686 68.958 28.3686 68.412ZM37.4528 64.876V72H36.2698V70.947C36.0445 71.311 35.7281 71.597 35.3208 71.805C34.9221 72.0043 34.4801 72.104 33.9948 72.104C33.4401 72.104 32.9418 71.9913 32.4998 71.766C32.0578 71.532 31.7068 71.1853 31.4468 70.726C31.1955 70.2667 31.0698 69.7077 31.0698 69.049V64.876H32.2398V68.893C32.2398 69.595 32.4175 70.1367 32.7728 70.518C33.1281 70.8907 33.6135 71.077 34.2288 71.077C34.8615 71.077 35.3598 70.882 35.7238 70.492C36.0878 70.102 36.2698 69.5343 36.2698 68.789V64.876H37.4528ZM40.6332 66.189C40.8672 65.7817 41.2139 65.4437 41.6732 65.175C42.1412 64.8977 42.6829 64.759 43.2982 64.759C43.9309 64.759 44.5029 64.9107 45.0142 65.214C45.5342 65.5173 45.9416 65.9463 46.2362 66.501C46.5309 67.047 46.6782 67.684 46.6782 68.412C46.6782 69.1313 46.5309 69.7727 46.2362 70.336C45.9416 70.8993 45.5342 71.337 45.0142 71.649C44.5029 71.961 43.9309 72.117 43.2982 72.117C42.6916 72.117 42.1542 71.9827 41.6862 71.714C41.2269 71.4367 40.8759 71.0943 40.6332 70.687V75.38H39.4502V64.876H40.6332V66.189ZM45.4692 68.412C45.4692 67.8747 45.3609 67.4067 45.1442 67.008C44.9276 66.6093 44.6329 66.306 44.2602 66.098C43.8962 65.89 43.4932 65.786 43.0512 65.786C42.6179 65.786 42.2149 65.8943 41.8422 66.111C41.4782 66.319 41.1836 66.6267 40.9582 67.034C40.7416 67.4327 40.6332 67.8963 40.6332 68.425C40.6332 68.9623 40.7416 69.4347 40.9582 69.842C41.1836 70.2407 41.4782 70.5483 41.8422 70.765C42.2149 70.973 42.6179 71.077 43.0512 71.077C43.4932 71.077 43.8962 70.973 44.2602 70.765C44.6329 70.5483 44.9276 70.2407 45.1442 69.842C45.3609 69.4347 45.4692 68.958 45.4692 68.412Z" fill="#1E1E2D"/>
    <path d="M0 27C0 12.0883 12.0883 0 27 0C41.9117 0 54 12.0883 54 27C54 41.9117 41.9117 54 27 54C12.0883 54 0 41.9117 0 27Z" fill="#F4F4F4"/>
    <path d="M26.8984 39.0833V23.5833" stroke="#1E1E2D" stroke-width="1.5" stroke-linecap="round" stroke-linejoin="round"/>
    <path d="M22.3984 28.0833L26.8985 23.4023L30.8984 28.0833" stroke="#1E1E2D" stroke-width="1.5" stroke-linecap="round" stroke-linejoin="round"/>
    <path d="M31.2317 31.1667H34.005C36.0937 31.1667 37.7967 29.4637 37.7967 27.375C37.7967 25.2863 36.0937 23.5833 34.005 23.5833H33.5337V22.5C33.5337 18.9142 30.6196 16 27.0338 16C23.8087 16 21.135 18.3595 20.628 21.4416C18.0529 21.5727 16 23.6841 16 26.2917C16 28.9838 18.1829 31.1667 20.875 31.1667H22.565" stroke="#1E1E2D" stroke-width="1.5" stroke-linecap="round" stroke-linejoin="round"/>
</svg>
